<svg width="188" height="188" viewBox="0 0 188 188" fill="none" xmlns="http://www.w3.org/2000/svg">
<circle cx="94.0001" cy="93.4422" r="66.4592" stroke="#96D0CC" stroke-width="11"/>
<path d="M56 93C56 100.516 58.2287 107.863 62.4041 114.112C66.5796 120.361 72.5144 125.231 79.458 128.107C86.4016 130.984 94.0421 131.736 101.413 130.27C108.785 128.804 115.556 125.184 120.87 119.87C126.184 114.556 129.804 107.785 131.27 100.413C132.736 93.0422 131.984 85.4016 129.107 78.458C126.231 71.5144 121.361 65.5797 115.112 61.4042C108.863 57.2287 101.516 55 94 55" stroke="#2E948D" stroke-width="8" stroke-linecap="round"/>
<rect x="148" y="90" width="28" height="8" rx="3" fill="#96D0CC"/>
<rect x="12" y="90" width="28" height="8" rx="3" fill="#96D0CC"/>
<rect x="98" y="148" width="28" height="8" rx="3" transform="rotate(90 98 148)" fill="#96D0CC"/>
<rect x="98" y="12" width="28" height="8" rx="3" transform="rotate(90 98 12)" fill="#96D0CC"/>
<path d="M89.375 74.7083H99.625V78.125H89.375V74.7083ZM106.51 85.6246L108.935 83.1987C108.201 82.3275 107.398 81.5075 106.527 80.79L104.101 83.2158C101.38 81.0261 97.9924 79.8325 94.5 79.8333C90.4223 79.8333 86.5116 81.4532 83.6282 84.3366C80.7449 87.2199 79.125 91.1306 79.125 95.2083C79.125 103.699 85.9925 110.583 94.5 110.583C97.3944 110.585 100.23 109.769 102.681 108.229C105.132 106.69 107.099 104.489 108.354 101.881C109.609 99.2724 110.101 96.3628 109.775 93.4868C109.449 90.6108 108.317 87.8854 106.51 85.6246ZM96.2083 96.9167H92.7917V86.6667H96.2083V96.9167Z" fill="#134E4A"/>
<circle cx="94.5" cy="95.2083" r="15.375" fill="#134E4A"/>
</svg>
