<svg width="188" height="188" viewBox="0 0 188 188" fill="none" xmlns="http://www.w3.org/2000/svg">
<rect width="188" height="188" rx="94" fill="#ba4949"/>
<circle cx="94.0001" cy="93.4422" r="69.9592" stroke="white" stroke-opacity="0.2" stroke-width="4"/>
<circle cx="94.0001" cy="93.4422" r="49.8776" stroke="white" stroke-opacity="0.6" stroke-width="4"/>
<path d="M64.4353 93.4422C64.4353 99.2895 66.1693 105.006 69.4179 109.867C72.6665 114.729 77.2838 118.519 82.6861 120.756C88.0883 122.994 94.0327 123.579 99.7677 122.439C105.503 121.298 110.771 118.482 114.905 114.348C119.04 110.213 121.856 104.945 122.997 99.21C124.137 93.475 123.552 87.5305 121.314 82.1283C119.076 76.7261 115.287 72.1087 110.425 68.8601C105.563 65.6115 99.8473 63.8776 94 63.8776" stroke="white" stroke-opacity="0.8" stroke-width="4" stroke-linecap="round"/>
<rect x="12" y="91.7687" width="20.0816" height="4.46258" rx="2.23129" fill="#D9D9D9"/>
<rect x="155.918" y="91.7687" width="20.0816" height="4.46258" rx="2.23129" fill="#D9D9D9"/>
<rect x="96.2313" y="12" width="20.0816" height="4.46258" rx="2.23129" transform="rotate(90 96.2313 12)" fill="#D9D9D9"/>
<rect x="96.2313" y="155.918" width="20.0816" height="4.46258" rx="2.23129" transform="rotate(90 96.2313 155.918)" fill="#D9D9D9"/>
<path d="M91.2109 81.1701H97.9048V83.4014H91.2109V81.1701ZM102.401 88.299L103.985 86.7148C103.505 86.1458 102.981 85.6103 102.412 85.1418L100.828 86.726C99.051 85.2959 96.8386 84.5165 94.5578 84.517C91.8949 84.517 89.3409 85.5749 87.4579 87.4579C85.5749 89.3409 84.517 91.8948 84.517 94.5578C84.517 100.103 89.0019 104.599 94.5578 104.599C96.4481 104.6 98.3002 104.067 99.9008 103.061C101.501 102.056 102.786 100.619 103.605 98.9152C104.425 97.2119 104.747 95.3117 104.533 93.4335C104.32 91.5553 103.581 89.7755 102.401 88.299ZM95.6735 95.6735H93.4422V88.9796H95.6735V95.6735Z" fill="white"/>
<circle cx="94.5578" cy="94.5578" r="10.0408" fill="white"/>
</svg>
